<svg xmlns="http://www.w3.org/2000/svg" viewBox="0 0 64 64">
  <defs>
    <linearGradient id="bg" x1="0" x2="1" y1="0" y2="1">
      <stop offset="0" stop-color="#1f2a5a"/>
      <stop offset="1" stop-color="#2d3b8b"/>
    </linearGradient>
    <linearGradient id="fg" x1="0" x2="1">
      <stop offset="0" stop-color="#60a5fa"/>
      <stop offset="1" stop-color="#93c5fd"/>
    </linearGradient>
  </defs>
  <rect x="2" y="2" width="60" height="60" rx="12" fill="url(#bg)"/>
  <path d="M10 26h20l4 4h20v18a6 6 0 0 1-6 6H16a6 6 0 0 1-6-6V26z" fill="url(#fg)" stroke="#e5efff" stroke-width="1.2"/>
  <g fill="none" stroke="#ffffff" stroke-width="3" stroke-linecap="round" stroke-linejoin="round">
    <path d="M40 20a8 8 0 0 1 7 4 7 7 0 0 1 0 14H29a7 7 0 0 1 0-14 8 8 0 0 1 11-4z"/>
    <path d="M38 36v8"/>
    <path d="M33.5 40.5L38 36l4.5 4.5"/>
  </g>
</svg>